<svg xmlns="http://www.w3.org/2000/svg" viewBox="0 0 1200 1200"><defs><linearGradient id="linear-gradient" x1="600" x2="600" y1="1082.8" y2="117.19" gradientUnits="userSpaceOnUse"><stop offset="0" stop-color="#ed6600"/><stop offset=".04" stop-color="#ed6c00"/><stop offset=".25" stop-color="#f08300"/><stop offset=".47" stop-color="#f39400"/><stop offset=".7" stop-color="#f49e00"/><stop offset="1" stop-color="#f5a200"/></linearGradient><filter id="drop-shadow-1" filterUnits="userSpaceOnUse"><feOffset dy="10"/><feGaussianBlur result="blur" stdDeviation="10"/><feFlood flood-color="#000" flood-opacity=".3"/><feComposite in2="blur" operator="in"/><feComposite in="SourceGraphic"/></filter><style>.cls-3{stroke-width:0;fill:#fff}</style></defs><path fill="url(#linear-gradient)" stroke-width="0" d="M1082.81 549.61V417.92c0-11.46 0-22.93-.07-34.39-.06-9.66-.17-19.31-.43-28.97-.57-21.04-1.81-42.26-5.55-63.06a212.572 212.572 0 0 0-19.76-59.92 201.588 201.588 0 0 0-88.17-88.12 212.678 212.678 0 0 0-59.99-19.75c-20.81-3.74-42.03-4.97-63.07-5.54-9.65-.26-19.32-.37-28.98-.43-11.47-.07-22.94-.06-34.41-.06l-133.18-.48h-99.61l-130.83.48c-11.49 0-22.99 0-34.48.06-9.68.06-19.36.17-29.04.43-21.09.57-42.36 1.81-63.22 5.55a213.911 213.911 0 0 0-60.07 19.74 201.775 201.775 0 0 0-73.38 63.41c14.79 8.68 24.73 24.75 24.73 43.14 0 27.61-22.39 50-50 50-3.68 0-7.26-.41-10.71-1.16-2.82 18.45-3.84 37.16-4.35 55.73-.18 6.82-.28 13.64-.35 20.46 27.03.67 48.74 22.78 48.74 49.97s-22.11 49.71-49.48 49.99v75.03c27.37.28 49.48 22.55 49.48 49.99s-22.11 49.71-49.48 49.99v.4l.34 74.63c27.22.46 49.14 22.65 49.14 49.98s-21.71 49.3-48.74 49.97c.07 6.87.17 13.74.35 20.62.5 18.52 1.52 37.19 4.31 55.58 3.46-.76 7.05-1.17 10.74-1.17 27.61 0 50 22.39 50 50 0 18.47-10.02 34.58-24.91 43.24a202.025 202.025 0 0 0 73.55 63.73c18.94 9.54 39.2 16.21 60.1 19.78 20.85 3.74 42.11 4.98 63.19 5.55 9.68.26 19.36.37 29.04.43 11.49.07 22.98.07 34.48.07h363.61c11.47 0 22.94 0 34.41-.06 9.66-.06 19.32-.17 28.98-.43 21.05-.57 42.28-1.81 63.09-5.56a212.784 212.784 0 0 0 59.95-19.77 201.753 201.753 0 0 0 88.17-88.24c9.53-18.92 16.2-39.15 19.76-60.04 3.74-20.82 4.98-42.07 5.55-63.12.26-9.67.37-19.34.43-29.01.07-11.48.07-22.96.07-34.44V549.63Z" filter="url(#drop-shadow-1)"/><path d="m537.5 475 225 125-225 125V475z" class="cls-3"/><path d="M810.71 626.78C797.62 724.57 713.87 800 612.5 800c-110.46 0-200-89.54-200-200s89.54-200 200-200c101.37 0 185.12 75.42 198.21 173.22l91.61-50.9C868.09 394.29 751.31 300 612.5 300c-165.69 0-300 134.31-300 300s134.31 300 300 300c138.82 0 255.59-94.29 289.82-222.32l-91.61-50.9Z" class="cls-3"/><path fill="none" stroke-width="0" d="M0 0h1200v1200H0z"/></svg>